<svg xmlns="http://www.w3.org/2000/svg" width="6" height="6" viewBox="0 0 6 6">
  <defs>
    <style>
      .cls-1 {
        fill: #949fa6;
        fill-rule: evenodd;
      }
    </style>
  </defs>
  <path id="Forma_1_copy_10" data-name="Forma 1 copy 10" class="cls-1" d="M1058.11,1534.89a2.942,2.942,0,0,0-2.11-.89,3,3,0,1,0,3,3A2.942,2.942,0,0,0,1058.11,1534.89Zm-2.11,4.4a2.29,2.29,0,0,1-2.29-2.29,2.317,2.317,0,0,1,.44-1.35l3.2,3.19A2.258,2.258,0,0,1,1056,1539.29Zm1.84-.94-3.19-3.2a2.317,2.317,0,0,1,1.35-.44,2.29,2.29,0,0,1,2.29,2.29A2.258,2.258,0,0,1,1057.84,1538.35Z" transform="translate(-1053 -1534)"/>
</svg>
