<svg xmlns="http://www.w3.org/2000/svg" width="12.031" height="8" viewBox="0 0 12.031 8">
  <defs>
    <style>
      .cls-1 {
        fill: #949fa6;
        fill-rule: evenodd;
      }
    </style>
  </defs>
  <path id="Forma_1" data-name="Forma 1" class="cls-1" d="M724.923,2257.76c-0.107-.16-2.661-3.76-5.924-3.76s-5.816,3.6-5.923,3.76a0.415,0.415,0,0,0,0,.48c0.107,0.16,2.661,3.76,5.923,3.76s5.817-3.6,5.924-3.76A0.415,0.415,0,0,0,724.923,2257.76ZM719,2261.17c-2.4,0-4.484-2.39-5.1-3.17,0.615-.78,2.692-3.17,5.1-3.17s4.484,2.39,5.1,3.17C723.484,2258.78,721.408,2261.17,719,2261.17Zm0-5.65a2.482,2.482,0,1,0,2.374,2.48A2.43,2.43,0,0,0,719,2255.52Zm0,4.13a1.657,1.657,0,1,1,1.583-1.65A1.619,1.619,0,0,1,719,2259.65Z" transform="translate(-713 -2254)"/>
</svg>
