<svg xmlns="http://www.w3.org/2000/svg" width="19" height="19" viewBox="0 0 19 19">
  <defs>
    <style>
      .cls-1 {
        fill: #fff;
        fill-rule: evenodd;
      }
    </style>
  </defs>
  <path id="Forma_1" data-name="Forma 1" class="cls-1" d="M1351.5,50a9.5,9.5,0,1,0,9.5,9.5A9.51,9.51,0,0,0,1351.5,50Zm0,18.367a8.867,8.867,0,1,1,8.87-8.867A8.879,8.879,0,0,1,1351.5,68.366Zm0.32-10.127V55.028a0.32,0.32,0,0,0-.64,0V58.24a1.255,1.255,0,0,0-.9.9h-2.26a0.317,0.317,0,1,0,0,.633h2.26A1.265,1.265,0,1,0,1351.82,58.24Zm-0.32,1.855a0.633,0.633,0,1,1,.63-0.634A0.631,0.631,0,0,1,1351.5,60.095Zm0-6.967a0.323,0.323,0,0,0,.32-0.317V52.495a0.32,0.32,0,0,0-.64,0v0.317A0.323,0.323,0,0,0,1351.5,53.128Zm0,12.667a0.323,0.323,0,0,0-.32.317v0.317a0.32,0.32,0,0,0,.64,0V66.111A0.323,0.323,0,0,0,1351.5,65.795Zm6.97-6.65h-0.32a0.317,0.317,0,1,0,0,.633h0.32A0.317,0.317,0,0,0,1358.47,59.145Zm-13.62,0h-0.32a0.317,0.317,0,0,0,0,.633h0.32A0.317,0.317,0,1,0,1344.85,59.145Zm11.35-4.834-0.22.224a0.317,0.317,0,0,0,.22.541,0.346,0.346,0,0,0,.23-0.093l0.22-.224a0.324,0.324,0,0,0,0-.448A0.319,0.319,0,0,0,1356.2,54.311Zm-9.63,9.629-0.22.224a0.324,0.324,0,0,0,0,.448,0.306,0.306,0,0,0,.22.093,0.329,0.329,0,0,0,.23-0.093l0.22-.224a0.306,0.306,0,0,0,0-.448A0.32,0.32,0,0,0,1346.57,63.94Zm9.86,0a0.319,0.319,0,0,0-.45,0,0.306,0.306,0,0,0,0,.448l0.22,0.224a0.312,0.312,0,0,0,.23.093,0.306,0.306,0,0,0,.22-0.093,0.324,0.324,0,0,0,0-.448Zm-9.63-9.629a0.319,0.319,0,0,0-.45,0,0.324,0.324,0,0,0,0,.448l0.22,0.224a0.346,0.346,0,0,0,.23.093,0.317,0.317,0,0,0,.22-0.541Z" transform="translate(-1342 -50)"/>
</svg>
