<svg xmlns="http://www.w3.org/2000/svg" width="17" height="15" viewBox="0 0 17 15">
  <defs>
    <style>
      .cls-1 {
        fill: #949fa6;
        fill-rule: evenodd;
      }
    </style>
  </defs>
  <path id="Forma_1" data-name="Forma 1" class="cls-1" d="M1124.9,480.737a0.692,0.692,0,0,0-.96-0.248l-2.33,1.369-0.59.353v3.278l0.55,0.332c0.02,0,.02.021,0.04,0.021l2.29,1.348a0.6,0.6,0,0,0,.38.124,0.7,0.7,0,0,0,.7-0.705v-2.78l0.02-2.739A0.56,0.56,0,0,0,1124.9,480.737Zm-13.61-1.057a3.341,3.341,0,1,0-3.29-3.341A3.313,3.313,0,0,0,1111.29,479.68Zm0-4.71a1.37,1.37,0,0,1,0,2.739,1.37,1.37,0,0,1-1.35-1.37A1.332,1.332,0,0,1,1111.29,474.97Zm8.34,4.9a3.915,3.915,0,0,1-1.76.436,3.8,3.8,0,0,1-2.13-.643h-2.33a3.747,3.747,0,0,1-2.12.643,3.632,3.632,0,0,1-1.76-.436,1.622,1.622,0,0,0-.79,1.39v5.063a1.669,1.669,0,0,0,1.65,1.68h8.4a1.67,1.67,0,0,0,1.65-1.68v-5.063A1.685,1.685,0,0,0,1119.63,479.866Zm-1.76-.186a3.341,3.341,0,1,0-3.29-3.341A3.313,3.313,0,0,0,1117.87,479.68Zm0-4.71a1.37,1.37,0,1,1-1.35,1.369A1.344,1.344,0,0,1,1117.87,474.97Z" transform="translate(-1108 -473)"/>
</svg>
