<svg xmlns="http://www.w3.org/2000/svg" width="10" height="15" viewBox="0 0 10 15">
  <defs>
    <style>
      .cls-1 {
        fill: #1f1f1f;
        fill-rule: evenodd;
        mix-blend-mode: luminosity;
      }
    </style>
  </defs>
  <path id="Shape_1_copy_12" data-name="Shape 1 copy 12" class="cls-1" d="M1520.38,228.132l4.46,3.783a0.417,0.417,0,0,1,0,.657l-0.33.279a0.614,0.614,0,0,1-.77,0l-3.75-3.177-3.74,3.18a0.589,0.589,0,0,1-.39.136,0.609,0.609,0,0,1-.39-0.136l-0.32-.278a0.418,0.418,0,0,1,0-.658l4.46-3.786a0.582,0.582,0,0,1,.38-0.136A0.589,0.589,0,0,1,1520.38,228.132Zm-0.76,14.735-4.46-3.783a0.417,0.417,0,0,1,0-.657l0.33-.279a0.614,0.614,0,0,1,.77,0l3.74,3.176,3.75-3.18a0.594,0.594,0,0,1,.39-0.135,0.613,0.613,0,0,1,.39.135l0.32,0.279a0.418,0.418,0,0,1,0,.658l-4.46,3.786a0.589,0.589,0,0,1-.39.135A0.581,0.581,0,0,1,1519.62,242.867Z" transform="translate(-1515 -228)"/>
</svg>
