<svg xmlns="http://www.w3.org/2000/svg" width="16" height="16" viewBox="0 0 16 16">
  <defs>
    <style>
      .cls-1 {
        fill: #949fa6;
        fill-rule: evenodd;
      }
    </style>
  </defs>
  <path id="Forma_1" data-name="Forma 1" class="cls-1" d="M1534.78,178.827a0.369,0.369,0,0,0-.37-0.363h-1.3a0.369,0.369,0,0,0-.37.363v1.267a0.369,0.369,0,0,0,.37.363h1.3a0.369,0.369,0,0,0,.37-0.363v-1.267h0Zm3.24,0a0.369,0.369,0,0,0-.37-0.363h-1.3a0.369,0.369,0,0,0-.37.363v1.267a0.369,0.369,0,0,0,.37.363h1.3a0.369,0.369,0,0,0,.37-0.363v-1.267Zm3.24,0a0.369,0.369,0,0,0-.37-0.363h-1.3a0.369,0.369,0,0,0-.37.363v1.267a0.369,0.369,0,0,0,.37.363h1.3a0.369,0.369,0,0,0,.37-0.363v-1.267Zm-6.48,3.167a0.369,0.369,0,0,0-.37-0.363h-1.3a0.369,0.369,0,0,0-.37.363v1.267a0.369,0.369,0,0,0,.37.363h1.3a0.369,0.369,0,0,0,.37-0.363v-1.267h0Zm3.24,0a0.369,0.369,0,0,0-.37-0.363h-1.3a0.369,0.369,0,0,0-.37.363v1.267a0.369,0.369,0,0,0,.37.363h1.3a0.369,0.369,0,0,0,.37-0.363v-1.267Zm3.24,0a0.369,0.369,0,0,0-.37-0.363h-1.3a0.369,0.369,0,0,0-.37.363v1.267a0.369,0.369,0,0,0,.37.363h1.3a0.369,0.369,0,0,0,.37-0.363v-1.267h0Zm2.32-10.213v1.936a1.6,1.6,0,0,1-1.62,1.579h-1.03a1.61,1.61,0,0,1-1.63-1.579v-1.943h-4.6v1.943a1.61,1.61,0,0,1-1.63,1.579h-1.03a1.6,1.6,0,0,1-1.62-1.579v-1.936a1.453,1.453,0,0,0-1.42,1.433v11.343a1.46,1.46,0,0,0,1.47,1.442h13.06a1.461,1.461,0,0,0,1.47-1.442V173.214A1.453,1.453,0,0,0,1543.58,171.781Zm-0.48,12.07a0.623,0.623,0,0,1-.63.619H1531.5a0.623,0.623,0,0,1-.63-0.619v-5.859a0.624,0.624,0,0,1,.63-0.621h10.97a0.624,0.624,0,0,1,.63.621v5.859h0Zm-11.06-9.592h1.01a0.551,0.551,0,0,0,.56-0.544v-3.172a0.552,0.552,0,0,0-.56-0.544h-1.01a0.552,0.552,0,0,0-.56.544v3.172A0.551,0.551,0,0,0,1532.04,174.259Zm8.88,0h1.01a0.551,0.551,0,0,0,.56-0.544v-3.172a0.552,0.552,0,0,0-.56-0.544h-1.01a0.552,0.552,0,0,0-.56.544v3.172A0.551,0.551,0,0,0,1540.92,174.259Z" transform="translate(-1529 -170)"/>
</svg>
